<?xml version="1.0" encoding="utf-8"?>
<!-- Generator: Adobe Illustrator 27.9.5, SVG Export Plug-In . SVG Version: 9.03 Build 54986)  -->
<svg version="1.1" id="Layer_1" xmlns="http://www.w3.org/2000/svg" xmlns:xlink="http://www.w3.org/1999/xlink" x="0px" y="0px"
	 viewBox="0 0 246.1 72.2" style="enable-background:new 0 0 246.1 72.2;" xml:space="preserve">
<style type="text/css">
	.st0{fill:url(#SVGID_1_);}
	.st1{fill:url(#SVGID_00000058571288979359721030000003012302309554502804_);}
	.st2{fill:url(#SVGID_00000157310091027190610730000016657633031496821648_);}
	.st3{fill:url(#SVGID_00000132791635769336944770000014998899454636021410_);}
	.st4{fill:url(#SVGID_00000095321666130687371040000004539842879002373261_);}
	.st5{fill:url(#SVGID_00000020360718467144385990000007200372333763940737_);}
	.st6{fill:url(#SVGID_00000158715636539892633310000008697529593243897785_);}
	.st7{fill:url(#SVGID_00000005977911158478133090000004614899320239466923_);}
	.st8{fill:#1F3B71;}
</style>
<g>
	<g>
		<linearGradient id="SVGID_1_" gradientUnits="userSpaceOnUse" x1="46.7852" y1="69.1486" x2="46.7852" y2="59.832">
			<stop  offset="0" style="stop-color:#FFFFFF;stop-opacity:0"/>
			<stop  offset="1" style="stop-color:#C5C5C4"/>
		</linearGradient>
		<path class="st0" d="M89.9,64.5c0,2.6-19.3,4.7-43.1,4.7c-23.8,0-43.1-2.1-43.1-4.7c0-2.6,19.3-4.7,43.1-4.7
			C70.6,59.8,89.9,61.9,89.9,64.5z"/>
		<g>
			
				<linearGradient id="SVGID_00000123426251905331290240000017348665976483896246_" gradientUnits="userSpaceOnUse" x1="5032.458" y1="2.7252" x2="5032.458" y2="39.4692" gradientTransform="matrix(-1 0 0 1 5081.9712 0)">
				<stop  offset="0" style="stop-color:#E9594F"/>
				<stop  offset="0.4356" style="stop-color:#E9594F"/>
				<stop  offset="1" style="stop-color:#E5352B"/>
			</linearGradient>
			<path style="fill:url(#SVGID_00000123426251905331290240000017348665976483896246_);" d="M51.8,9.8c0,1.4-1,2.6-2.3,2.6
				c-1.3,0-2.3-1.2-2.3-2.6c0-1.4,1-2.6,2.3-2.6C50.8,7.2,51.8,8.4,51.8,9.8z"/>
			
				<linearGradient id="SVGID_00000038394813598056835550000002468175860302654849_" gradientUnits="userSpaceOnUse" x1="5033.6421" y1="3.2119" x2="5033.6421" y2="39.957" gradientTransform="matrix(-1 0 0 1 5081.9712 0)">
				<stop  offset="0" style="stop-color:#E9594F"/>
				<stop  offset="0.4356" style="stop-color:#E9594F"/>
				<stop  offset="1" style="stop-color:#E5352B"/>
			</linearGradient>
			<path style="fill:url(#SVGID_00000038394813598056835550000002468175860302654849_);" d="M48.5,24.7c1.7,2.1,2.6,7.7,2.8,8.8
				c0.2,1.2,1,1,1,1c0.7,0,0.6-1,0.6-1c-0.2-2-1-13.1,1.3-15.8c2-2.2,4.1-2.4,6.1-2.7c1.9-0.4,1.3-1.5,1.3-1.5
				c-0.4-0.9-1.6-0.5-1.6-0.5c-2.1,0.8-7.3,2.7-11.6,1.1c-3.8-1.4-9.1-7.8-11-10.1c-0.4-0.5-1-0.8-1.6-0.8c-0.3,0-0.5,0.1-0.7,0.3
				c-0.2,0.3-0.2,0.8,0,1.2c0.2,0.3,0.5,0.6,0.7,0.8c2.3,1.9,6.4,6.5,6.9,10.8c0.6,4.9-0.6,13.9-1.3,18.3c-0.1,1.1,0.7,1.2,0.7,1.2
				c1.1,0.1,1.3-0.9,1.3-0.9c0.7-3,1.9-8.5,3.3-10.2C46.8,24.7,47.7,23.8,48.5,24.7z"/>
		</g>
		<g>
			
				<linearGradient id="SVGID_00000092415502197787459700000004934419218525241013_" gradientUnits="userSpaceOnUse" x1="33.1017" y1="28.8594" x2="33.1017" y2="56.5291">
				<stop  offset="0" style="stop-color:#87A3D5"/>
				<stop  offset="1" style="stop-color:#1F71B7"/>
			</linearGradient>
			<path style="fill:url(#SVGID_00000092415502197787459700000004934419218525241013_);" d="M30.1,33.5c0,1.8,1.3,3.2,3,3.2
				c1.7,0,3-1.4,3-3.2c0-1.8-1.3-3.2-3-3.2C31.4,30.3,30.1,31.8,30.1,33.5z"/>
			
				<linearGradient id="SVGID_00000057123868678656405770000014898530965179072172_" gradientUnits="userSpaceOnUse" x1="31.7046" y1="28.8589" x2="31.7046" y2="56.529">
				<stop  offset="0" style="stop-color:#87A3D5"/>
				<stop  offset="1" style="stop-color:#1F71B7"/>
			</linearGradient>
			<path style="fill:url(#SVGID_00000057123868678656405770000014898530965179072172_);" d="M34.5,51.8c-2.3,2.6-3.4,9.6-3.6,10.9
				c-0.3,1.5-1.3,1.2-1.3,1.2c-0.9,0-0.8-1.3-0.8-1.3C29,60,30.1,46.3,27,43c-2.6-2.8-8.3-3.9-10.9-4.2c-2.5-0.4-1.6-1.8-1.6-1.8
				c0.5-1.2,2.1-0.6,2.1-0.6c2.7,0.9,12.4,4.2,18,2.2c4.9-1.7,9.5-6.8,11.6-9.2c0.4-0.5,1.2-0.8,1.9-0.7c1,0.1,1.4,1,0.9,1.8
				c-0.2,0.3-0.5,0.6-0.8,0.8c-2.5,1.7-5.5,4.8-6.2,10.1C41,47.4,42.6,58.6,43.5,64c0.2,1.3-0.9,1.5-0.9,1.5
				c-1.4,0.2-1.7-1.2-1.7-1.2c-0.9-3.7-2.5-10.6-4.3-12.6C36.7,51.7,35.5,50.6,34.5,51.8z"/>
		</g>
		<g>
			
				<linearGradient id="SVGID_00000073694930056602768130000006956133548519586237_" gradientUnits="userSpaceOnUse" x1="5085.8521" y1="29.8332" x2="5085.8521" y2="70.2768" gradientTransform="matrix(-1 0 0 1 5148.3892 0)">
				<stop  offset="0" style="stop-color:#71AE80"/>
				<stop  offset="0.4969" style="stop-color:#0B8D45"/>
				<stop  offset="1" style="stop-color:#077E40"/>
			</linearGradient>
			<path style="fill:url(#SVGID_00000073694930056602768130000006956133548519586237_);" d="M65.5,33.1c0,1.8-1.3,3.2-3,3.2
				c-1.7,0-3-1.4-3-3.2c0-1.8,1.3-3.2,3-3.2C64.2,29.9,65.5,31.3,65.5,33.1z"/>
			
				<linearGradient id="SVGID_00000029739939317900339100000012588763728620882349_" gradientUnits="userSpaceOnUse" x1="5082.4551" y1="23.1522" x2="5082.4551" y2="63.5966" gradientTransform="matrix(-1 0 0 1 5146.3892 13.0234)">
				<stop  offset="0" style="stop-color:#71AE80"/>
				<stop  offset="0.4969" style="stop-color:#0B8D45"/>
				<stop  offset="1" style="stop-color:#077E40"/>
			</linearGradient>
			<path style="fill:url(#SVGID_00000029739939317900339100000012588763728620882349_);" d="M61.2,51.3c2.3,2.6,3.4,9.5,3.6,10.9
				c0.3,1.5,1.3,1.2,1.3,1.2c0.9,0,0.8-1.3,0.8-1.3c-0.3-2.5-1.4-16.2,1.7-19.5c2.6-2.8,8.3-3.9,10.9-4.2c2.5-0.4,1.6-1.8,1.6-1.8
				c-0.5-1.2-2.1-0.6-2.1-0.6c-2.7,0.9-12.4,4.2-18,2.2c-4.9-1.7-9.5-6.8-11.6-9.2c-0.4-0.5-1.2-0.8-1.9-0.7c-1,0.1-1.4,1-0.9,1.8
				c0.2,0.3,0.5,0.6,0.8,0.8c2.5,1.7,5.5,4.8,6.2,10.1c0.8,6.1-0.8,17.3-1.7,22.7C52,64.9,53.1,65,53.1,65c1.4,0.2,1.7-1.2,1.7-1.2
				c0.9-3.7,2.5-10.6,4.3-12.6C59,51.3,60.1,50.2,61.2,51.3z"/>
		</g>
		
			<linearGradient id="SVGID_00000039812454582485119830000015047002480826931093_" gradientUnits="userSpaceOnUse" x1="3.6165" y1="37.832" x2="92.1568" y2="37.832">
			<stop  offset="0" style="stop-color:#71787E"/>
			<stop  offset="1" style="stop-color:#EBEBEB;stop-opacity:0.65"/>
		</linearGradient>
		<path style="fill:url(#SVGID_00000039812454582485119830000015047002480826931093_);" d="M89.6,49.6c-1.2,0.9-2.5,1.5-4,2.1
			c-2.9,1.1-6.1,1.7-9.3,2.1c-3.2,0.4-6.5,0.5-9.7,0.4c-3.3-0.1-6.5-0.3-9.7-0.6c-6.5-0.7-12.8-1.9-19-3.5
			c-6.2-1.6-12.1-3.6-17.6-6.3c-2.7-1.3-5.3-2.8-7.6-4.5c-2.3-1.7-4.3-3.6-5.4-5.7c-0.6-1.1-0.8-2.2-0.8-3.2c0.1-1.1,0.6-2.1,1.4-3
			c0.8-0.9,1.9-1.7,3.2-2.4c1.3-0.7,2.7-1.2,4.1-1.6c2.9-0.9,6.1-1.4,9.3-1.7c3.2-0.3,6.5-0.4,9.8-0.4c2.9,0,5.7,0.2,8.6,0.4v-0.7
			c-2.8-0.4-5.6-0.7-8.5-0.8c-3.3-0.2-6.7-0.2-10,0c-3.4,0.2-6.7,0.7-10,1.6c-1.6,0.4-3.2,1-4.7,1.7c-1.5,0.7-2.9,1.7-4,2.8
			c-1.1,1.2-1.8,2.6-1.9,4c-0.2,1.5,0.2,2.9,0.8,4.2C5.1,35.7,6,36.9,7.1,38c1,1.1,2.2,2.1,3.4,3c2.5,1.8,5.2,3.4,8.1,4.8
			c2.9,1.4,5.9,2.6,8.9,3.6c3.1,1.1,6.2,2,9.4,2.8c3.2,0.8,6.4,1.4,9.7,2c3.3,0.5,6.6,0.9,9.9,1.2c6.7,0.5,13.4,0.5,20-0.5
			c1.6-0.3,3.3-0.6,4.9-1c1.6-0.4,3.1-0.9,4.6-1.6c1.4-0.7,2.8-1.4,3.9-2.4c1.1-1,1.9-2.1,2.3-3.4C91.7,47.6,90.7,48.7,89.6,49.6z"
			/>
	</g>
	<g>
		<g>
			<path class="st8" d="M104.1,51.8v-9.4h5.6v0.8H105v3.4h4.6v0.8H105V51h4.9v0.8H104.1z"/>
			<path class="st8" d="M111.9,51.8h-0.8v-9.4h0.8V51.8z"/>
			<path class="st8" d="M117,51.8h-0.8c0-0.4,0.1-1,0.1-1.5v-7.9h0.8v3.8l0,0c0.5-0.8,1.4-1.2,2.2-1.2c1.9,0,2.7,1.7,2.7,3.4
				c0,1.6-0.7,3.5-2.6,3.5c-1,0-1.7-0.4-2.3-1.2l0,0.1L117,51.8z M117,48.4c0,1.5,0.5,2.9,2.2,2.9c1.5,0,1.9-1.6,1.9-2.8
				c0-1.2-0.5-2.7-2-2.7C117.6,45.8,117,47.1,117,48.4z"/>
			<path class="st8" d="M123.4,48.7c0,1.4,0.7,2.6,2.3,2.6c0.9,0,1.7-0.7,1.9-1.6h0.8c-0.4,1.6-1.4,2.3-3,2.3c-2,0-2.9-1.7-2.9-3.5
				c0-1.8,1-3.5,2.9-3.5c2.2,0,3,1.6,3,3.6H123.4z M127.6,48c-0.1-1.3-0.8-2.2-2.1-2.2c-1.3,0-2,1.1-2.1,2.2H127.6z"/>
			<path class="st8" d="M130.3,51.8h-0.8v-5.1c0-0.5,0-1-0.1-1.5h0.8l0,1l0,0c0.5-0.8,1.2-1.2,2-1.2c2.1,0,2.3,1.9,2.3,2.6v4.1h-0.8
				v-4.2c0-1.1-0.6-1.8-1.7-1.8c-1.3,0-1.9,1.1-1.9,2.2V51.8z"/>
			<path class="st8" d="M136.6,48.7c0,1.4,0.7,2.6,2.3,2.6c0.9,0,1.7-0.7,1.9-1.6h0.8c-0.4,1.6-1.4,2.3-3,2.3c-2,0-2.9-1.7-2.9-3.5
				c0-1.8,1-3.5,2.9-3.5c2.2,0,3,1.6,3,3.6H136.6z M140.8,48c-0.1-1.3-0.8-2.2-2.1-2.2c-1.3,0-2,1.1-2.1,2.2H140.8z"/>
			<path class="st8" d="M143.3,51.8V46h-1.3v-0.7h1.3v-1.4c0-1.1,0.5-1.6,1.6-1.6c0.2,0,0.5,0.1,0.7,0.1V43c-0.2,0-0.3-0.1-0.5-0.1
				c-1.1,0-1.1,0.5-1.1,1.5v0.8h1.5V46H144v5.8H143.3z M147.8,43.4h-0.9v-1h0.9V43.4z M147.7,45.3v6.5h-0.8v-6.5H147.7z"/>
			<path class="st8" d="M153.4,47.3c-0.1-1-0.7-1.5-1.8-1.5c-1.2,0-1.9,1.2-1.9,2.7c0,1.5,0.7,2.8,1.9,2.8c1,0,1.7-0.6,1.8-1.5h0.8
				c-0.2,1.5-1.1,2.2-2.6,2.2c-2,0-2.9-1.7-2.9-3.5c0-1.8,1-3.5,2.9-3.5c1.3,0,2.4,0.8,2.5,2.2H153.4z"/>
			<path class="st8" d="M156,43.4h-0.9v-1h0.9V43.4z M155.9,45.3v6.5h-0.8v-6.5H155.9z"/>
			<path class="st8" d="M163,48.5c0,1.7-1,3.5-3,3.5c-2.1,0-3-1.7-3-3.5c0-1.7,1-3.5,3-3.5C162,45.1,163,46.8,163,48.5z M160,45.8
				c-1.6,0-2.2,1.5-2.2,2.7c0,1.2,0.6,2.7,2.2,2.7c1.6,0,2.2-1.5,2.2-2.7C162.2,47.3,161.5,45.8,160,45.8z"/>
			<path class="st8" d="M171.4,50.8L171.4,50.8c-0.6,0.7-1.4,1.2-2.3,1.2c-1.9,0-2.7-1.8-2.7-3.5c0-1.7,0.7-3.4,2.7-3.4
				c0.9,0,1.8,0.4,2.2,1.2l0,0v-3.8h0.8v7.9c0,0.5,0,1,0.1,1.5h-0.8L171.4,50.8z M169.3,45.8c-1.5,0-2,1.4-2,2.6
				c0,1.2,0.3,2.9,1.8,2.9c1.7,0,2.2-1.4,2.2-2.9C171.4,47.1,170.8,45.8,169.3,45.8z"/>
			<path class="st8" d="M174,48.7c0,1.4,0.7,2.6,2.3,2.6c0.9,0,1.7-0.7,1.9-1.6h0.8c-0.4,1.6-1.4,2.3-3,2.3c-2,0-2.9-1.7-2.9-3.5
				c0-1.8,1-3.5,2.9-3.5c2.2,0,3,1.6,3,3.6H174z M178.2,48c-0.1-1.3-0.8-2.2-2.1-2.2c-1.3,0-2,1.1-2.1,2.2H178.2z"/>
			<path class="st8" d="M183.5,48.7c0,1.4,0.7,2.6,2.3,2.6c0.9,0,1.7-0.7,1.9-1.6h0.8c-0.4,1.6-1.4,2.3-3,2.3c-2,0-2.9-1.7-2.9-3.5
				c0-1.8,1-3.5,2.9-3.5c2.2,0,3,1.6,3,3.6H183.5z M187.7,48c-0.1-1.3-0.8-2.2-2.1-2.2c-1.3,0-2,1.1-2.1,2.2H187.7z"/>
			<path class="st8" d="M191.9,45.1c1.2,0,2.3,0.4,2.4,1.8h-0.8c-0.1-0.8-0.8-1.1-1.6-1.1c-0.7,0-1.5,0.3-1.5,1.1c0,1,1.3,0.9,3,1.5
				c0.7,0.2,1.1,0.8,1.1,1.5c0,1.5-1.4,2.1-2.7,2.1c-1.1,0-2.4-0.5-2.5-2h0.8c0.1,1,0.9,1.3,1.8,1.3c0.8,0,1.7-0.4,1.7-1.3
				c0-0.9-1-1.1-2.1-1.3c-1-0.2-2.1-0.5-2.1-1.8C189.5,45.6,190.7,45.1,191.9,45.1z"/>
			<path class="st8" d="M196.1,46h-1.3v-0.7h1.3v-1.4l0.8-0.3v1.7h1.5V46h-1.5v4.4c0,0.6,0.3,0.9,0.9,0.9c0.2,0,0.5,0,0.7-0.1v0.7
				c-0.2,0.1-0.5,0.1-0.8,0.1c-1.7,0-1.6-1.1-1.6-1.9V46z"/>
			<path class="st8" d="M203.2,47.2c-0.1-1.1-0.6-1.4-1.5-1.4c-0.8,0-1.5,0.2-1.6,1.1h-0.8c0.2-1.3,1.2-1.8,2.4-1.8
				c1.4,0,2.3,0.7,2.3,2.2v3.1c0,0.5,0,1,0.1,1.5h-0.8l0-1h0l0,0.1c-0.3,0.5-1.2,1.1-2,1.1c-1.2,0-2.2-0.7-2.2-2
				c0-0.9,0.5-1.6,1.3-1.9c0.9-0.4,2-0.2,3-0.3V47.2z M201.2,51.3c1.7,0,2-1.4,2-2.8c-1.1,0-3.4-0.2-3.4,1.5
				C199.8,50.9,200.4,51.3,201.2,51.3z"/>
			<path class="st8" d="M206.1,51.8h-0.8v-5.1c0-0.5,0-1-0.1-1.5h0.8l0,1h0c0.2-0.7,0.8-1.1,1.5-1.2c0.3,0,0.5,0,0.8,0v0.8
				c-0.2,0-0.3-0.1-0.5-0.1c-1.2,0-1.8,0.8-1.8,2.1V51.8z"/>
			<path class="st8" d="M211,53.6c1.1,0,1-0.3,1-2v-6.3h0.8v6.8c0,1.7,0,2.3-1.8,2.2V53.6z M212.9,43.4h-0.9v-1h0.9V43.4z"/>
			<path class="st8" d="M218.6,45.3h0.8v5.1c0,0.5,0,1,0.1,1.5h-0.8l0-1l0,0c-0.5,0.8-1.2,1.2-2,1.2c-2.1,0-2.3-1.9-2.3-2.6v-4.1
				h0.8v4.2c0,1.1,0.6,1.8,1.7,1.8c1.3,0,1.9-1.1,1.9-2.2V45.3z"/>
			<path class="st8" d="M221.6,51.8h-0.8v-5.1c0-0.5,0-1-0.1-1.5h0.8l0,1l0,0c0.5-0.8,1.2-1.2,2-1.2c2.1,0,2.3,1.9,2.3,2.6v4.1h-0.8
				v-4.2c0-1.1-0.7-1.8-1.7-1.8c-1.3,0-1.9,1.1-1.9,2.2V51.8z"/>
			<path class="st8" d="M228,46h-1.3v-0.7h1.3v-1.4l0.8-0.3v1.7h1.5V46h-1.5v4.4c0,0.6,0.3,0.9,0.9,0.9c0.2,0,0.5,0,0.7-0.1v0.7
				c-0.2,0.1-0.5,0.1-0.8,0.1c-1.6,0-1.6-1.1-1.6-1.9V46z"/>
			<path class="st8" d="M236.7,48.5c0,1.7-1,3.5-3,3.5c-2.1,0-3-1.7-3-3.5c0-1.7,1-3.5,3-3.5C235.7,45.1,236.7,46.8,236.7,48.5z
				 M233.7,45.8c-1.6,0-2.2,1.5-2.2,2.7c0,1.2,0.6,2.7,2.2,2.7c1.6,0,2.2-1.5,2.2-2.7C235.9,47.3,235.2,45.8,233.7,45.8z"/>
			<path class="st8" d="M239.9,45.1c1.2,0,2.3,0.4,2.4,1.8h-0.8c-0.1-0.8-0.8-1.1-1.6-1.1c-0.7,0-1.5,0.3-1.5,1.1c0,1,1.3,0.9,3,1.5
				c0.7,0.2,1.1,0.8,1.1,1.5c0,1.5-1.4,2.1-2.7,2.1c-1.1,0-2.4-0.5-2.5-2h0.8c0.1,1,0.9,1.3,1.8,1.3c0.8,0,1.7-0.4,1.7-1.3
				c0-0.9-1-1.1-2.1-1.3c-1-0.2-2.1-0.5-2.1-1.8C237.5,45.6,238.7,45.1,239.9,45.1z"/>
		</g>
		<g>
			<path class="st8" d="M158,18.4l7.1-0.1c1.7,0,4-0.1,5.2,0.7c1.3,0.8,2.3,2.3,2.4,4.3c0,2.2-1,3.9-2.8,4.8v0.1
				c2.4,0.5,3.8,2.4,3.8,5c0.1,3.1-1.9,6.1-5.8,6.1l-9.4,0.2L158,18.4z M160.8,27.4l5.2-0.1c2.9-0.1,4.1-1.2,4.1-3.4
				c-0.1-2.9-2-3.3-4.2-3.2l-5.2,0.1L160.8,27.4z M160.9,37l6.5-0.1c2.2,0,3.6-1.5,3.6-3.8c0-2.7-2.1-3.5-4.3-3.4l-5.9,0.1L160.9,37
				z"/>
			<path class="st8" d="M182.5,23.4c4.5-0.1,6.9,3.4,7,7.8c0.1,4.4-2.2,8-6.7,8.1c-4.5,0.1-6.9-3.4-7-7.8
				C175.7,27,178,23.5,182.5,23.4z M182.7,37.1c2.4,0,4.3-2.1,4.3-5.8c-0.1-3.7-2.1-5.7-4.5-5.7c-2.4,0-4.3,2.1-4.3,5.8
				C178.3,35.1,180.3,37.1,182.7,37.1z"/>
			<path class="st8" d="M193.7,33.9c0.1,2.2,1.9,2.9,3.8,2.9c1.4,0,3.4-0.4,3.4-2.3c0-1.9-2.3-2.2-4.7-2.7c-2.3-0.5-4.6-1.3-4.7-4.2
				c-0.1-3.1,2.7-4.4,5.2-4.4c3.1-0.1,5.6,1,5.9,4.7l-2.3,0c-0.2-1.9-1.8-2.5-3.3-2.5c-1.4,0-3,0.5-3,2c0,1.8,2.5,2,4.7,2.6
				c2.3,0.5,4.6,1.3,4.7,4.2c0.1,3.6-3,4.8-5.9,4.9c-3.2,0.1-5.9-1.3-6.1-5L193.7,33.9z"/>
			<path class="st8" d="M208.9,23.2l2.8-0.1l0,2.2l-2.8,0.1l0.2,9.4c0,1.1,0.3,1.3,1.8,1.3l1.1,0l0,2.2l-1.8,0
				c-2.4,0-3.4-0.5-3.4-3.3l-0.2-9.7l-2.4,0l0-2.2l2.4,0l-0.1-4.6l2.3,0L208.9,23.2z"/>
			<path class="st8" d="M220.3,22.7c4.5-0.1,6.9,3.4,7,7.8c0.1,4.4-2.2,8-6.7,8.1c-4.5,0.1-6.9-3.4-7-7.8
				C213.5,26.3,215.9,22.8,220.3,22.7z M220.6,36.4c2.4,0,4.3-2.1,4.3-5.8c-0.1-3.7-2.1-5.7-4.5-5.7c-2.4,0-4.3,2.1-4.3,5.8
				C216.1,34.4,218.1,36.4,220.6,36.4z"/>
			<path class="st8" d="M229.9,22.9l2.2,0l0,2.4l0.1,0c0.9-1.9,2.5-2.8,4.5-2.8c3.7-0.1,4.9,2.2,5,5.5l0.2,10l-2.3,0l-0.2-10.3
				c0-1.9-1.1-3-2.9-3c-2.8,0.1-4.1,2.1-4.1,4.8l0.2,8.6l-2.3,0L229.9,22.9z"/>
		</g>
		<g>
			<g>
				<path class="st8" d="M105.9,37.3c0.1,0,0.1-0.1,0.2-0.2c2.2-5.6,5.1-13.5,7.3-19.2c0.4,0,1,0,1.7,0c2.1,5.7,4.8,13.6,6.9,19.3
					l1.9,0.1c0,0.5,0,1,0,1.5c-0.8,0-2,0-3,0c-1.4,0-2.9,0-4.1,0c0-0.5,0-1,0-1.5l2.5-0.1c0.1,0,0.1-0.1,0.1-0.2
					c-0.5-1.5-1.1-3.2-1.6-4.6c0-0.1-0.1-0.2-0.2-0.2l-7.5,0c-0.5,1.5-1.2,3.4-1.7,4.8l2.8,0.1c0,0.5,0,1,0,1.5c-1.2,0-2.7,0-4.2,0
					c-0.9,0-1.9,0-2.8,0c0-0.5,0-1,0-1.5L105.9,37.3z M113.8,21.5c-1.1,2.9-2.3,6.4-3.3,9.3c-0.1,0.1,0,0.2,0.1,0.2h6.6
					c-1-2.9-2.2-6.5-3.2-9.5H113.8z"/>
				<path class="st8" d="M128.1,36.5c0,0.2,0.1,0.3,0.2,0.4c0.6,0.4,1.8,0.7,2.9,0.7c1.5,0,2.9-0.5,3.6-1.2c0.7-0.8,1-1.5,1-2.5
					c0-2.8-1.5-3.2-4.5-4.7c-2.8-1.3-4.7-2.7-4.7-5.5c0-1.7,0.9-3.3,2-4.2c1.2-1,3-1.5,5.1-1.5c1.4,0,3.1,0.3,3.8,0.7
					c0.2,1.5,0.3,3.1,0.3,4.7c-0.5,0.1-1.1,0.2-1.7,0.2l-0.5-3c-0.1-0.2-0.1-0.3-0.2-0.4c-0.5-0.4-1.4-0.6-2.4-0.6
					c-1.1,0-2.2,0.3-3,1c-0.7,0.6-1.2,1.5-1.2,2.6c0,2.2,1,2.7,4.3,4.2c3.1,1.4,5,2.8,5,5.7c0,1.8-0.6,3.3-1.8,4.4
					c-1.3,1.2-3.1,1.8-5.7,1.8c-1.5,0-3.6-0.3-4.6-0.8c-0.1-1.6-0.3-3.4-0.4-5c0.6-0.1,1.2-0.2,1.8-0.3L128.1,36.5z"/>
				<path class="st8" d="M143.7,37.3C143.8,37.3,143.8,37.3,143.7,37.3l0.1-17.5l-2.3-0.1c0-0.5,0-1,0-1.5c1.1,0,2.4,0,3.6,0
					c0.9,0,6.2,0,6.9,0c1.3,0,2,0,2.7,0c0.1,1.6,0.2,3.2,0.3,4.8c-0.5,0.1-1.1,0.2-1.7,0.2l-0.5-2.8c-0.1-0.3-0.2-0.5-0.7-0.6
					c-0.8-0.1-2.9-0.2-5-0.2c-0.3,0-0.8,0-0.9,0l0,7.8c1.8,0,3.2,0,4.9-0.1c0.6,0,0.7-0.2,0.8-0.6l0.2-1.5c0.5,0,1.1,0,1.6,0
					c0,1-0.1,2-0.1,3c0,1,0,2,0,2.9c-0.5,0-1.1,0.1-1.6,0l-0.1-1.6c0-0.4-0.3-0.6-0.8-0.6c-1.4,0-3,0-4.9,0l0,7.6
					c0,0.5,0.1,0.6,1.8,0.6c2.5,0,4.3-0.1,4.9-0.2c0.3-0.1,0.4-0.3,0.6-0.6l1-2.9c0.6,0.1,1.1,0.2,1.6,0.3c-0.3,1.6-0.7,3.3-1.1,5
					c-1.5,0-5.5,0-9.8,0c-1.3,0-2.6,0-3.7,0c0-0.5,0-1,0-1.5L143.7,37.3z"/>
			</g>
		</g>
	</g>
</g>
</svg>
